<svg width="132" height="132" viewBox="0 0 132 132" fill="none" xmlns="http://www.w3.org/2000/svg">
<path d="M115.368 48.2876L115.295 49.1105L115.825 49.7446L129.395 66L115.825 82.2554L115.295 82.8895L115.368 83.7124L117.256 105.186L97.277 109.94L96.4285 110.142L95.9991 110.901L85.5571 129.365L66.8205 120.936L65.9972 120.566L65.1748 120.938L46.4406 129.424L36.0009 110.964L35.5715 110.205L34.723 110.003L14.7433 105.248L16.6324 83.7119L16.7045 82.8893L16.1753 82.2554L2.60338 65.9977L16.1776 49.679L16.7043 49.0458L16.6324 48.2252L14.7437 26.6935L34.7177 21.9984L35.5699 21.798L36.0009 21.036L46.443 2.57227L65.1795 11.0011L66 11.3702L66.8205 11.0011L85.5548 2.57327L95.9978 21.0965L96.4269 21.8577L97.277 22.06L117.256 26.8143L115.368 48.2876Z" stroke="#F8F200" stroke-width="4"/>
<path d="M57.3166 82.4897L57.4864 82.6594L52.5649 87.5809C51.7022 86.8313 50.7476 86.1171 49.7011 85.4383C49.7152 87.2061 49.5597 89.0304 49.2344 90.9113L44.2917 95.854C43.6129 95.3732 42.7997 94.659 41.8522 93.7115C40.8906 92.7498 40.0703 91.6467 39.3915 90.4022C40.1127 89.087 40.5865 87.6091 40.8128 85.9687C41.0532 84.314 40.9754 82.8645 40.5794 81.62C39.6036 81.4078 38.6561 81.2664 37.7369 81.1957L44.7796 74.1529C49.2203 75.7934 53.3993 78.5723 57.3166 82.4897ZM47.7707 84.2716C46.1444 83.3806 44.4756 82.6735 42.7644 82.1503C44.0513 84.7666 45.515 86.994 47.1555 88.8324C47.6505 87.2909 47.8556 85.7707 47.7707 84.2716ZM60.4477 58.1878L61.1478 57.4878C62.0529 56.5827 62.6186 55.8049 62.8448 55.1543C63.1418 56.6958 63.3398 58.0959 63.4388 59.3545L63.0994 59.694C62.3781 60.4152 61.565 61.0021 60.6599 61.4546C60.4902 63.2083 60.773 65.0326 61.5084 66.9277C63.3893 65.8104 65.2844 64.3679 67.1935 62.6002C68.6926 63.2507 70.7079 64.6861 73.2393 66.9064L67.7451 72.4007C66.4582 71.5946 65.1288 71.0006 63.757 70.6187C62.3852 70.2086 61.2751 70.1026 60.4265 70.3006C61.4872 71.5592 62.3711 72.5421 63.0782 73.2492C63.7853 73.9563 64.4429 74.5715 65.051 75.0947L60.3841 79.7616C58.0365 77.9514 56.1485 76.3322 54.7202 74.9038C53.2777 73.4613 51.6018 71.5733 49.6927 69.2399L55.5899 63.3426C56.9193 65.5205 58.1002 67.2812 59.1325 68.6247C58.7224 66.9418 58.5103 65.4003 58.4961 64.0002C58.482 62.5719 58.7083 61.1294 59.175 59.6727C59.4719 59.2343 59.8962 58.7394 60.4477 58.1878ZM85.0345 55.1112L75.2764 64.8693C74.1026 63.2995 72.5824 61.5813 70.7156 59.7145C68.8488 57.8477 66.8053 56.0588 64.585 54.3476L70.1853 48.7473C71.1752 49.6807 71.9106 50.3878 72.3914 50.8686C74.7815 53.2586 76.9028 55.6911 78.7554 58.1659C79.5756 57.6568 80.5161 56.8719 81.5768 55.8113C79.8797 53.69 78.3029 51.901 76.8462 50.4443C75.3896 48.9877 73.94 47.6513 72.4975 46.435L78.0129 40.9196C78.8615 41.7116 79.4837 42.3055 79.8797 42.7015C82.2556 45.0774 84.4971 47.7008 86.6043 50.5716C87.2973 49.9918 87.9337 49.4261 88.5135 48.8746C89.6873 50.5292 90.6419 52.1202 91.3773 53.6475L88.9165 55.8537C88.6903 55.3446 88.4286 54.9415 88.1316 54.6445C87.2548 53.7677 86.2225 53.9233 85.0345 55.1112ZM91.6318 48.5139C90.4015 46.9159 88.8246 45.1552 86.9013 43.2318C84.9638 41.2944 82.9698 39.5549 80.9192 38.0134L86.5194 32.4131C86.7881 32.6535 87.474 33.3253 88.5771 34.4284C89.6802 35.5314 91.0166 37.1224 92.5864 39.2013C92.6854 37.0376 92.4803 34.8102 91.9712 32.5192C91.0803 31.6565 90.0762 30.808 88.959 29.9736L94.4532 24.4794C95.33 25.2996 95.9805 25.9219 96.4048 26.3461C99.1484 29.0897 101.779 32.2575 104.296 35.8496L99.2261 40.9196C97.6139 38.7417 96.0866 36.8467 94.6441 35.2345C95.0825 37.2568 95.4926 40.2691 95.8745 44.2713L91.6318 48.5139ZM101.122 25.4045C100.005 24.2872 98.895 22.866 97.7919 21.1406L108.865 10.0673C110.562 11.3684 112.295 12.9028 114.062 14.6706C115.816 16.4242 117.513 18.5314 119.154 20.9921L114.529 25.6166C113.624 24.5418 112.811 23.6438 112.09 22.9225C111.354 22.1871 110.859 21.7063 110.605 21.48C109.912 23.1912 110.506 25.2843 112.387 27.7591L106.914 33.2321C105.429 31.5209 104.326 29.838 103.604 28.1834C105.202 26.4439 106.468 24.7822 107.402 23.1983C105.422 24.4994 103.534 25.4398 101.738 26.0196L101.122 25.4045ZM105.004 16.7707C105.217 18.4819 105.662 19.9315 106.341 21.1194C107.26 21.077 108.165 20.7234 109.056 20.0587C107.769 18.9415 106.419 17.8455 105.004 16.7707Z" fill="#F8F200"/>
</svg>
